<?xml version="1.0" encoding="UTF-8"?>
<!DOCTYPE svg PUBLIC "-//W3C//DTD SVG 1.1//EN" "http://www.w3.org/Graphics/SVG/1.1/DTD/svg11.dtd">
<svg version="1.1" xmlns="http://www.w3.org/2000/svg" xmlns:xlink="http://www.w3.org/1999/xlink" x="0" y="0" width="435.138" height="574.935" viewBox="0, 0, 435.138, 574.935">
  <g id="Layer_1">
    <path d="M91.997,334.233 L30.747,320.346 C30.747,320.346 28.501,311.411 19.126,307.827 C9.751,304.253 -2.788,335.981 11.49,349.843 C25.826,363.715 80.337,366.406 80.337,366.406" fill="#DC3D40" id="path833"/>
    <path d="M91.997,334.233 L30.747,320.346 C30.747,320.346 28.501,311.411 19.126,307.827 C9.751,304.253 -2.788,335.981 11.49,349.843 C25.826,363.715 80.337,366.406 80.337,366.406" fill-opacity="0" stroke="#3C2C1E" stroke-width="10" stroke-linecap="round" stroke-linejoin="round" id="path835"/>
    <path d="M148.599,502.734 L145.435,549.013 C145.435,549.013 129.634,560.151 132.798,566.157 C135.962,572.158 171.783,572.153 177.037,557.583 C182.31,543.012 187.564,501.015 187.564,501.015" fill="#DC3D40" id="path837"/>
    <path d="M148.599,502.734 L145.435,549.013 C145.435,549.013 129.634,560.151 132.798,566.157 C135.962,572.158 171.783,572.153 177.037,557.583 C182.31,543.012 187.564,501.015 187.564,501.015" fill-opacity="0" stroke="#3C2C1E" stroke-width="10" stroke-linecap="round" stroke-linejoin="round" id="path839"/>
    <path d="M348.677,363.022 L408.814,377.817 C408.814,377.817 414.732,370.908 424.595,371.899 C434.439,372.885 431.509,406.401 412.759,412.314 C394.029,418.227 344.751,396.547 344.751,396.547" fill="#DC3D40" id="path841"/>
    <path d="M348.677,363.022 L408.814,377.817 C408.814,377.817 414.732,370.908 424.595,371.899 C434.439,372.885 431.509,406.401 412.759,412.314 C394.029,418.227 344.751,396.547 344.751,396.547" fill-opacity="0" stroke="#3C2C1E" stroke-width="10" stroke-linecap="round" stroke-linejoin="round" id="path843"/>
    <path d="M282.583,502.734 L285.727,549.013 C285.727,549.013 301.548,560.151 298.384,566.157 C295.22,572.158 259.4,572.153 254.146,557.583 C248.872,543.012 243.619,501.015 243.619,501.015" fill="#DC3D40" id="path845"/>
    <path d="M282.583,502.734 L285.727,549.013 C285.727,549.013 301.548,560.151 298.384,566.157 C295.22,572.158 259.4,572.153 254.146,557.583 C248.872,543.012 243.619,501.015 243.619,501.015" fill-opacity="0" stroke="#3C2C1E" stroke-width="10" stroke-linecap="round" stroke-linejoin="round" id="path847"/>
    <path d="M140.943,341.723 C140.943,341.723 94.908,319.287 87.837,323.603 C80.747,327.915 66.587,385.727 72.779,388.315 C78.97,390.908 129.439,395.219 129.439,395.219 C129.439,395.219 124.126,450.444 130.318,450.444 C136.529,450.444 311.802,452.172 314.458,448.72 C317.095,445.268 310.025,398.671 310.025,398.671 L339.244,408.164 C339.244,408.164 371.119,358.979 366.685,354.663 C362.271,350.356 318.872,330.503 318.872,330.503" fill="#EBB646" id="path849"/>
    <path d="M140.943,341.723 C140.943,341.723 94.908,319.287 87.837,323.603 C80.747,327.915 66.587,385.727 72.779,388.315 C78.97,390.908 129.439,395.219 129.439,395.219 C129.439,395.219 124.126,450.444 130.318,450.444 C136.529,450.444 311.802,452.172 314.458,448.72 C317.095,445.268 310.025,398.671 310.025,398.671 L339.244,408.164 C339.244,408.164 371.119,358.979 366.685,354.663 C362.271,350.356 318.872,330.503 318.872,330.503" fill-opacity="0" stroke="#3C2C1E" stroke-width="10" stroke-linecap="round" stroke-linejoin="round" id="path851"/>
    <path d="M125.865,501.875 C137.857,501.875 200.415,504.438 202.994,503.588 C205.572,502.734 215.005,489.018 215.005,489.018 C215.005,489.018 226.138,507.016 231.275,507.016 C236.412,507.016 314.361,507.754 320.435,504.443 C329.849,499.301 304.146,349.311 304.146,349.311 L278.423,351.879 C278.423,351.879 281.861,426.45 278.423,426.45 C274.986,426.45 154.146,429.023 153.287,425.595 C152.427,422.163 154.146,352.739 154.146,352.739 C154.146,352.739 135.298,348.452 132.72,348.452 C130.162,348.452 113.872,501.875 125.865,501.875" fill="#4D5D9B" id="path853"/>
    <path d="M125.865,501.875 C137.857,501.875 200.415,504.438 202.994,503.588 C205.572,502.734 215.005,489.018 215.005,489.018 C215.005,489.018 226.138,507.016 231.275,507.016 C236.412,507.016 314.361,507.754 320.435,504.443 C329.849,499.301 304.146,349.311 304.146,349.311 L278.423,351.879 C278.423,351.879 281.861,426.45 278.423,426.45 C274.986,426.45 154.146,429.023 153.287,425.595 C152.427,422.163 154.146,352.739 154.146,352.739 C154.146,352.739 135.298,348.452 132.72,348.452 C130.162,348.452 113.872,501.875 125.865,501.875 z" fill-opacity="0" stroke="#3C2C1E" stroke-width="10" stroke-linecap="round" stroke-linejoin="round" id="path855"/>
    <path d="M417.105,216.713 C417.105,308.046 327.134,382.085 216.138,382.085 C105.152,382.085 15.181,308.046 15.181,216.713 C15.181,125.385 105.152,51.347 216.138,51.347 C327.134,51.347 417.105,125.385 417.105,216.713" fill="#DC3D40" id="path857"/>
    <path d="M417.105,216.713 C417.105,308.046 327.134,382.085 216.138,382.085 C105.152,382.085 15.181,308.046 15.181,216.713 C15.181,125.385 105.152,51.347 216.138,51.347 C327.134,51.347 417.105,125.385 417.105,216.713 z" fill-opacity="0" stroke="#3C2C1E" stroke-width="10" stroke-linecap="round" stroke-linejoin="round" id="path859"/>
    <path d="M214.995,114.594 L230.894,80.19 L270.357,86.601 L250.63,63.398 C274.829,59.389 288.179,36.201 288.179,36.201 C274.185,43.403 227.906,44.995 227.906,44.995 L228.54,5 L214.995,5.8 L203.794,5 L204.419,44.995 C204.419,44.995 155.806,43.403 141.792,36.201 C141.792,36.201 155.162,59.389 179.361,63.398 L159.615,86.601 L199.087,80.19 L214.995,114.594" fill="#63A151" id="path861"/>
    <path d="M214.995,114.594 L230.894,80.19 L270.357,86.601 L250.63,63.398 C274.829,59.389 288.179,36.201 288.179,36.201 C274.185,43.403 227.906,44.995 227.906,44.995 L228.54,5 L214.995,5.8 L203.794,5 L204.419,44.995 C204.419,44.995 155.806,43.403 141.792,36.201 C141.792,36.201 155.162,59.389 179.361,63.398 L159.615,86.601 L199.087,80.19 z" fill-opacity="0" stroke="#3C2C1E" stroke-width="10" stroke-linecap="round" stroke-linejoin="round" id="path863"/>
    <path d="M168.677,206.342 C168.677,239.516 141.792,266.411 108.609,266.411 C75.435,266.411 48.54,239.516 48.54,206.342 C48.54,173.169 75.435,146.274 108.609,146.274 C141.792,146.274 168.677,173.169 168.677,206.342" fill="#EA8B52" id="path865"/>
    <path d="M98.472,170.185 C100.494,174.668 96.353,180.883 89.263,184.062 C82.154,187.241 74.771,186.181 72.759,181.699 C70.757,177.212 74.878,170.996 81.988,167.817 C89.087,164.638 96.48,165.698 98.472,170.185" fill="#FFFFFE" id="path867"/>
    <path d="M382.242,206.342 C382.242,239.516 355.357,266.411 322.183,266.411 C288.998,266.411 262.115,239.516 262.115,206.342 C262.115,173.169 288.998,146.274 322.183,146.274 C355.357,146.274 382.242,173.169 382.242,206.342" fill="#EA8B52" id="path869"/>
    <path d="M312.046,170.185 C314.058,174.668 309.927,180.883 302.837,184.062 C295.727,187.241 288.335,186.181 286.333,181.699 C284.322,177.212 288.453,170.996 295.552,167.817 C302.662,164.638 310.044,165.698 312.046,170.185" fill="#FFFFFE" id="path871"/>
    <path d="M177.574,158.144 C177.574,174.526 169.107,187.802 158.667,187.802 C148.218,187.802 139.751,174.526 139.751,158.144 C139.751,141.757 148.218,128.481 158.667,128.481 C169.107,128.481 177.574,141.757 177.574,158.144" fill="#3C2C1E" id="path873"/>
    <path d="M282.886,158.144 C282.886,174.526 274.419,187.802 263.97,187.802 C253.531,187.802 245.064,174.526 245.064,158.144 C245.064,141.757 253.531,128.481 263.97,128.481 C274.419,128.481 282.886,141.757 282.886,158.144" fill="#3C2C1E" id="path875"/>
    <path d="M141.977,215.244 L274.712,213.759 C274.712,213.759 265.826,284.951 205.015,282.724 C144.204,280.503 141.977,215.244 141.977,215.244" fill="#E05659" id="path877"/>
    <path d="M141.977,215.244 L274.712,213.759 C274.712,213.759 265.826,284.951 205.015,282.724 C144.204,280.503 141.977,215.244 141.977,215.244 z" fill-opacity="0" stroke="#3C2C1E" stroke-width="10" stroke-linecap="round" stroke-linejoin="round" id="path879"/>
  </g>
</svg>
